<svg xmlns="http://www.w3.org/2000/svg" xmlns:xlink="http://www.w3.org/1999/xlink" viewBox="0 0 401.42 367.74"><defs><style>.cls-1,.cls-3,.cls-6,.cls-9{fill:#fff;}.cls-1,.cls-11,.cls-12,.cls-14,.cls-4{stroke:#263238;}.cls-1,.cls-11,.cls-12,.cls-14,.cls-15,.cls-4,.cls-7{stroke-linecap:round;stroke-linejoin:round;}.cls-14,.cls-2{fill:#c6ff00;}.cls-3{opacity:0.8;}.cls-15,.cls-4,.cls-7{fill:none;}.cls-12,.cls-5{fill:#263238;}.cls-6,.cls-8{opacity:0.65;}.cls-7{stroke:#ccc;stroke-width:1.25px;}.cls-8{fill:#e5e5e5;}.cls-10{clip-path:url(#clip-path);}.cls-11{opacity:0.24;}.cls-13{clip-path:url(#clip-path-2);}.cls-15{stroke:#fff;}</style><clipPath id="clip-path"><path class="cls-1" d="M217.78,256.07a39.31,39.31,0,0,0,0,20.4h42.6s-4.48-12.94,0-20.4Z"/></clipPath><clipPath id="clip-path-2"><path class="cls-1" d="M218.44,300.74a39.41,39.41,0,0,0,0,20.39h41.94s-4.48-12.93,0-20.39Z"/></clipPath></defs><g id="Background_Simple" data-name="Background Simple"><path class="cls-2" d="M357.15,55.48S332.71,8,278.73.94,187.08,28.21,147.37,45.8c-20.8,9.22-44.56,5.64-66.64,10.1C10.13,70.16-16.46,159.5,12.94,210.31c25.46,44,70.27,66.86,138.5,72.13s116.09,11.44,177.19-31.67S385.66,117.94,357.15,55.48Z"/><path class="cls-3" d="M357.15,55.48S332.71,8,278.73.94,187.08,28.21,147.37,45.8c-20.8,9.22-44.56,5.64-66.64,10.1C10.13,70.16-16.46,159.5,12.94,210.31c25.46,44,70.27,66.86,138.5,72.13s116.09,11.44,177.19-31.67S385.66,117.94,357.15,55.48Z"/></g><g id="Books"><path class="cls-4" d="M299.93,95.53l-10.49,43.8s3.62,5.07,5.06,6.52,4.71,1.45,5.8,1.45,42,.72,42,.72l8-53.57"/><line class="cls-4" x1="308.7" y1="87.27" x2="305.36" y2="87.21"/><polyline class="cls-4" points="291.61 140.06 335.77 139.91 345.18 87.93 312.79 87.34"/><polyline class="cls-4" points="294.14 140.42 297.76 144.4 340.12 145.49 347.78 99.04 344.46 94.45"/><path class="cls-5" d="M301.55,142.72h6.13s-1,4.85-1.53,9.45-.77,10.47-.77,10.47L301.8,156l-4.34,5.62Z"/><path class="cls-4" d="M43.2,152.32,69.3,141.8s1.27-3.68,1.48-4.94-1-2.92-1.36-3.47L54.59,111.74l-30.2,15.31"/><line class="cls-4" x1="35.81" y1="150.84" x2="36.99" y2="152.57"/><polyline class="cls-4" points="68.88 140.43 52.81 118 22.94 132.03 34.37 148.73"/><polyline class="cls-4" points="68.15 139.01 68.87 135.72 54.08 113.77 27.66 126.68 26.52 130.04"/><path class="cls-5" d="M66.64,134.4l-2.22-3.12s2.84-1.23,5.37-2.64,5.61-3.4,5.61-3.4l-2.09,4.22,4.43.18Z"/><polyline class="cls-4" points="42.56 193.32 40.5 194.35 58.79 229.36 89.42 196.74 126.81 185.21 108.11 155.37 106.47 155.5"/><path class="cls-4" d="M69.93,163.73l16.31,29.43s-7.16-1.59-8.75,5.17-8.75,15.51-11.94,19.49a58.19,58.19,0,0,1-6.36,6.76l-17.5-33.41S50,184.41,54,174.86,64.36,162.53,69.93,163.73Z"/><path class="cls-4" d="M86.24,193.16s2-6,6.76-6.36,13.52,1.19,21.08-1.2,8.75-3.18,8.75-3.18l-18.3-29.83s-4.37,3.58-15.51,3.58-17.9,2-19.09,7.56Z"/><path class="cls-4" d="M87.43,196.34a24.72,24.72,0,0,0-5.57,3.58c-2.78,2.39-5.17,6.77-9.94,12.73"/><path class="cls-4" d="M90.61,194a11.34,11.34,0,0,1,7.16-4A73.57,73.57,0,0,0,122,184.81"/><path class="cls-4" d="M47.66,195.55a138.05,138.05,0,0,0,9.54-12.33c5.57-8,9.55-11.14,13.92-11.14"/><path class="cls-4" d="M50.84,200.72a138.05,138.05,0,0,0,9.54-12.33c5.57-8,9.55-11.14,13.92-11.14"/><path class="cls-4" d="M54,205.89a136.73,136.73,0,0,0,9.55-12.33c5.56-8,9.54-11.14,13.92-11.14"/><path class="cls-4" d="M57.2,211.06a134.9,134.9,0,0,0,9.55-12.33c5.57-8,9.54-11.14,13.92-11.14"/><path class="cls-4" d="M76.69,169.69s1.59-4.37,7.56-4.37,19.14-.53,20.68-5.17"/><path class="cls-4" d="M80.27,175.66s2.79-3.58,10.34-3.58,14.32-1.59,18.7-6"/><path class="cls-4" d="M82.66,181.63a10,10,0,0,1,9.15-5.17c6.76,0,15.11-1.2,19.88-4.78"/><path class="cls-4" d="M85.44,186s1.2-4,8-4.37a67.22,67.22,0,0,0,21.48-4.78"/><polyline class="cls-4" points="259.14 14.56 258.1 13.37 237.97 31.6 264.98 46.33 279.13 69.21 295.74 51.6 295.37 50.53"/><path class="cls-4" d="M283.57,27.64l-16.76,16s-.18-5-4.95-4.92-11.84-3.14-15-4.57a40.44,40.44,0,0,1-5.6-3.06l19.2-17.43a32.56,32.56,0,0,0,13,5.38C280.45,20,283.4,23.73,283.57,27.64Z"/><path class="cls-4" d="M266.81,43.59s4.32.29,5.41,3.4,1.55,9.2,4.44,13.82,3.64,5.27,3.64,5.27L297,48.74s-3.14-2.29-5.07-9.7-4.43-11.57-8.34-11.4Z"/><path class="cls-4" d="M264.9,44.94a16.77,16.77,0,0,0-3.35-3.09c-2.07-1.44-5.39-2.27-10.19-4.41"/><path class="cls-4" d="M267,46.64a7.79,7.79,0,0,1,3.89,4.08A50.36,50.36,0,0,0,278.57,66"/><path class="cls-4" d="M258.54,18.34a95.13,95.13,0,0,0,9.86,4.21c6.26,2.33,9.06,4.42,9.82,7.33"/><path class="cls-4" d="M255.65,21.35a92.47,92.47,0,0,0,9.86,4.21c6.26,2.33,9.06,4.43,9.82,7.34"/><path class="cls-4" d="M252.76,24.36a93.52,93.52,0,0,0,9.86,4.22c6.26,2.32,9.06,4.42,9.82,7.33"/><path class="cls-4" d="M249.87,27.37a93.52,93.52,0,0,0,9.86,4.22c6.26,2.33,9.06,4.42,9.82,7.33"/><path class="cls-4" d="M280.77,33.18s3.19.3,4.22,4.27,3.67,12.64,7,12.86"/><path class="cls-4" d="M277.42,36.59s2.87,1.23,4.18,6.26,3.53,9.25,7.2,11.41"/><path class="cls-4" d="M273.87,39.21a6.87,6.87,0,0,1,5,5.19c1.17,4.5,3.41,9.85,6.62,12.41"/><path class="cls-4" d="M271.44,41.82s2.85.11,4.29,4.54a46.14,46.14,0,0,0,6.89,13.46"/><polyline class="cls-4" points="113.66 54.14 96.95 80.33 100.56 81.24 117.28 56.4 143.92 71.75 147.54 68.14 118.18 52.78"/><polyline class="cls-4" points="117.28 56.4 124.5 99.75 146.63 112.4 143.47 74.01"/><polyline class="cls-4" points="146.63 112.4 150.25 105.63 147.54 68.14"/><polyline class="cls-4" points="124.5 99.75 109.6 120.08 101.92 84.85"/><polyline class="cls-4" points="96.95 80.33 105.53 119.63 109.6 120.08"/><line class="cls-4" x1="118.18" y1="71.3" x2="106.44" y2="87.56"/><line class="cls-4" x1="119.08" y1="78.98" x2="107.34" y2="95.24"/><line class="cls-4" x1="119.99" y1="86.66" x2="108.24" y2="102.91"/><line class="cls-4" x1="120.89" y1="94.33" x2="109.15" y2="110.59"/><line class="cls-4" x1="123.15" y1="71.75" x2="138.96" y2="80.78"/><line class="cls-4" x1="123.15" y1="78.98" x2="138.96" y2="88.01"/><line class="cls-4" x1="125.41" y1="86.66" x2="141.21" y2="95.69"/><line class="cls-4" x1="125.86" y1="94.33" x2="141.67" y2="103.37"/><polyline class="cls-4" points="342.49 244.3 356.48 216.56 352.79 216.02 338.67 242.42 310.61 229.83 307.38 233.78 338.13 246.11"/><polyline class="cls-4" points="338.67 242.42 327.11 200.01 303.82 189.66 310.83 227.53"/><polyline class="cls-4" points="303.82 189.66 300.9 196.76 307.38 233.78"/><polyline class="cls-4" points="327.11 200.01 339.89 178.29 351.08 212.57"/><polyline class="cls-4" points="356.48 216.56 343.98 178.33 339.89 178.29"/><line class="cls-4" x1="336.27" y1="227.68" x2="346.31" y2="210.32"/><line class="cls-4" x1="334.59" y1="220.14" x2="344.64" y2="202.78"/><line class="cls-4" x1="332.92" y1="212.59" x2="342.97" y2="195.23"/><line class="cls-4" x1="331.25" y1="205.04" x2="341.3" y2="187.68"/><line class="cls-4" x1="331.28" y1="227.73" x2="314.64" y2="220.34"/><line class="cls-4" x1="330.55" y1="220.54" x2="313.91" y2="213.15"/><line class="cls-4" x1="327.53" y1="213.13" x2="310.89" y2="205.74"/><line class="cls-4" x1="326.31" y1="205.54" x2="309.67" y2="198.14"/></g><g id="Plants"><path class="cls-2" d="M281.82,258.72c-2.8,6.93-5.68,1.36-5.23-27.68.22-13.6,1.18-41.41,16.22-35.29,14.46,5.88-4.59,47-4.59,47Zm20.67,4.12s31.37-32.69,19.61-42.95c-12.25-10.68-22.19,15.31-26.81,28.11-9.86,27.31-8.94,33.51-4,27.87Zm6.61,29.34s28.73-20.45,21.22-30c-7.82-9.94-19.18,8.49-24.57,17.61-11.49,19.45-11.69,24.32-7.13,20.72Zm7.78,29.25s28.72-20.45,21.21-30c-7.81-9.93-19.17,8.49-24.56,17.61-11.5,19.45-11.7,24.33-7.13,20.73Zm-50.16-58.81S226.53,241.7,220,255.87c-6.8,14.75,20.93,17,34.51,17.82,29,1.79,34.68-.83,27.89-3.95Zm5.66,23s-43.55-12.51-47.13,2.68c-3.74,15.81,23.88,12.49,37.36,10.61,28.76-4,33.82-7.71,26.54-9.42Zm10,25.11s-37.12-9.57-39.8,3.36c-2.79,13.45,20.49,10,31.84,8.1,24.23-4.06,28.42-7.3,22.23-8.58Zm5.81,20.73s-35.89-13.46-39.93-.89C244,343.67,267.54,342.71,279,342c24.52-1.46,29-4.25,23-6.17Zm-24-105s-16.39-50.92-35-41.67c-19.36,9.62,3,32.59,14.19,43.58,23.87,23.45,31.26,25.1,28.11,16.91Z"/><path class="cls-6" d="M281.82,258.72c-2.8,6.93-5.68,1.36-5.23-27.68.22-13.6,1.18-41.41,16.22-35.29,14.46,5.88-4.59,47-4.59,47Zm20.67,4.12s31.37-32.69,19.61-42.95c-12.25-10.68-22.19,15.31-26.81,28.11-9.86,27.31-8.94,33.51-4,27.87Zm6.61,29.34s28.73-20.45,21.22-30c-7.82-9.94-19.18,8.49-24.57,17.61-11.49,19.45-11.69,24.32-7.13,20.72Zm7.78,29.25s28.72-20.45,21.21-30c-7.81-9.93-19.17,8.49-24.56,17.61-11.5,19.45-11.7,24.33-7.13,20.73Zm-50.16-58.81S226.53,241.7,220,255.87c-6.8,14.75,20.93,17,34.51,17.82,29,1.79,34.68-.83,27.89-3.95Zm5.66,23s-43.55-12.51-47.13,2.68c-3.74,15.81,23.88,12.49,37.36,10.61,28.76-4,33.82-7.71,26.54-9.42Zm10,25.11s-37.12-9.57-39.8,3.36c-2.79,13.45,20.49,10,31.84,8.1,24.23-4.06,28.42-7.3,22.23-8.58Zm5.81,20.73s-35.89-13.46-39.93-.89C244,343.67,267.54,342.71,279,342c24.52-1.46,29-4.25,23-6.17Zm-24-105s-16.39-50.92-35-41.67c-19.36,9.62,3,32.59,14.19,43.58,23.87,23.45,31.26,25.1,28.11,16.91Z"/><path class="cls-7" d="M236.93,203s41.15,50.2,51,75.34c11.31,28.87,19,61.4,20.54,88.34"/><line class="cls-7" x1="279.73" y1="261.89" x2="285.45" y2="214.02"/><line class="cls-7" x1="287.92" y1="278.29" x2="308.62" y2="238.05"/><line class="cls-7" x1="284.9" y1="272.32" x2="241.55" y2="263.49"/><line class="cls-7" x1="296.07" y1="301.12" x2="321.56" y2="272.08"/><line class="cls-7" x1="292.5" y1="291.55" x2="259.78" y2="291.27"/><line class="cls-7" x1="298.8" y1="315.31" x2="273.71" y2="316.31"/><line class="cls-7" x1="303.96" y1="330.48" x2="317.4" y2="312.56"/><line class="cls-7" x1="304.94" y1="337.14" x2="275.59" y2="335.68"/><path class="cls-2" d="M361,298.37c-5.06,1.91-3.51-2.35,12.16-16.38,7.34-6.58,22.6-19.73,26.74-8.72,4,10.58-27.25,20.65-27.25,20.65Zm8,13s32.81.62,32.48-10.68c-.34-11.76-19-4.27-28.12-.44-19.38,8.18-22.23,11.71-16.82,11.55Zm-12.35,17.94s25,5.23,26.38-3.46c1.44-9-13.94-6-21.44-4.41-16,3.44-18.69,5.73-14.53,6.39Zm-11.74,18.51s25,5.23,26.38-3.46c1.45-9-13.94-6-21.44-4.41-16,3.45-18.69,5.74-14.53,6.4Zm6.63-55.59s-8.63-31.66-19.38-28.17c-11.19,3.64,1.25,19.48,7.48,27.12,13.3,16.29,17.49,18,15.81,12.89ZM342,306.58s-14.75-29.31-24.59-23.75c-10.25,5.78,5.1,18.84,12.72,25.09,16.27,13.32,20.73,14.2,18.06,9.49Zm-8.45,17.65s-13.15-24.45-21.35-19.52c-8.53,5.13,4.75,15.81,11.34,20.92,14.07,10.89,17.85,11.53,15.49,7.61Zm-8.17,13.27s-10.48-25.7-19.16-21.67c-9,4.19,3,16.23,9.06,22,12.83,12.32,16.53,13.35,14.59,9.21Zm44-64.39s19-33.74,5-39.09c-14.64-5.56-15.86,17.62-16.21,29-.74,24.22,2,29,4.83,23.26Z"/><path class="cls-8" d="M361,298.37c-5.06,1.91-3.51-2.35,12.16-16.38,7.34-6.58,22.6-19.73,26.74-8.72,4,10.58-27.25,20.65-27.25,20.65Zm8,13s32.81.62,32.48-10.68c-.34-11.76-19-4.27-28.12-.44-19.38,8.18-22.23,11.71-16.82,11.55Zm-12.35,17.94s25,5.23,26.38-3.46c1.44-9-13.94-6-21.44-4.41-16,3.44-18.69,5.73-14.53,6.39Zm-11.74,18.51s25,5.23,26.38-3.46c1.45-9-13.94-6-21.44-4.41-16,3.45-18.69,5.74-14.53,6.4Zm6.63-55.59s-8.63-31.66-19.38-28.17c-11.19,3.64,1.25,19.48,7.48,27.12,13.3,16.29,17.49,18,15.81,12.89ZM342,306.58s-14.75-29.31-24.59-23.75c-10.25,5.78,5.1,18.84,12.72,25.09,16.27,13.32,20.73,14.2,18.06,9.49Zm-8.45,17.65s-13.15-24.45-21.35-19.52c-8.53,5.13,4.75,15.81,11.34,20.92,14.07,10.89,17.85,11.53,15.49,7.61Zm-8.17,13.27s-10.48-25.7-19.16-21.67c-9,4.19,3,16.23,9.06,22,12.83,12.32,16.53,13.35,14.59,9.21Zm44-64.39s19-33.74,5-39.09c-14.64-5.56-15.86,17.62-16.21,29-.74,24.22,2,29,4.83,23.26Z"/><path class="cls-7" d="M368.56,247.08s-6.48,46.56-15,64.15C343.75,331.44,329,353,315.39,367"/><line class="cls-7" x1="358.25" y1="298.82" x2="386.53" y2="278.33"/><line class="cls-7" x1="353.55" y1="311.23" x2="385.13" y2="302.47"/><line class="cls-7" x1="355.24" y1="306.7" x2="338.63" y2="279.29"/><line class="cls-7" x1="345.41" y1="326.79" x2="373.39" y2="326.07"/><line class="cls-7" x1="348.75" y1="320.19" x2="332.81" y2="302.64"/><line class="cls-7" x1="339.21" y1="335.22" x2="326.34" y2="322.36"/><line class="cls-7" x1="333.68" y1="345.42" x2="349.81" y2="343.76"/><line class="cls-7" x1="330.62" y1="349.22" x2="316.96" y2="332.88"/><path class="cls-2" d="M119.6,258.72c2.8,6.93,5.68,1.36,5.22-27.68-.21-13.6-1.17-41.41-16.22-35.29-14.46,5.88,4.6,47,4.6,47Zm-20.67,4.12s-31.37-32.69-19.61-42.95c12.25-10.68,22.18,15.31,26.8,28.11,9.86,27.31,8.95,33.51,4,27.87Zm-6.62,29.34s-28.72-20.45-21.21-30c7.82-9.94,19.18,8.49,24.56,17.61,11.5,19.45,11.7,24.32,7.14,20.72Zm-7.77,29.25s-28.72-20.45-21.22-30c7.82-9.93,19.18,8.49,24.57,17.61,11.5,19.45,11.7,24.33,7.13,20.73Zm50.16-58.81s40.19-20.92,46.72-6.75c6.81,14.75-20.92,17-34.51,17.82-29,1.79-34.67-.83-27.88-3.95Zm-5.66,23s43.54-12.51,47.13,2.68c3.74,15.81-23.88,12.49-37.36,10.61-28.76-4-33.82-7.71-26.55-9.42Zm-10,25.11s37.11-9.57,39.8,3.36c2.79,13.45-20.49,10-31.84,8.1-24.23-4.06-28.43-7.3-22.23-8.58Zm-5.81,20.73s35.89-13.46,39.93-.89c4.2,13.08-19.31,12.12-30.8,11.44-24.52-1.46-29-4.25-23-6.17Zm24-105s16.38-50.92,35-41.67c19.36,9.62-3,32.59-14.19,43.58-23.87,23.45-31.26,25.1-28.12,16.91Z"/><path class="cls-6" d="M119.6,258.72c2.8,6.93,5.68,1.36,5.22-27.68-.21-13.6-1.17-41.41-16.22-35.29-14.46,5.88,4.6,47,4.6,47Zm-20.67,4.12s-31.37-32.69-19.61-42.95c12.25-10.68,22.18,15.31,26.8,28.11,9.86,27.31,8.95,33.51,4,27.87Zm-6.62,29.34s-28.72-20.45-21.21-30c7.82-9.94,19.18,8.49,24.56,17.61,11.5,19.45,11.7,24.32,7.14,20.72Zm-7.77,29.25s-28.72-20.45-21.22-30c7.82-9.93,19.18,8.49,24.57,17.61,11.5,19.45,11.7,24.33,7.13,20.73Zm50.16-58.81s40.19-20.92,46.72-6.75c6.81,14.75-20.92,17-34.51,17.82-29,1.79-34.67-.83-27.88-3.95Zm-5.66,23s43.54-12.51,47.13,2.68c3.74,15.81-23.88,12.49-37.36,10.61-28.76-4-33.82-7.71-26.55-9.42Zm-10,25.11s37.11-9.57,39.8,3.36c2.79,13.45-20.49,10-31.84,8.1-24.23-4.06-28.43-7.3-22.23-8.58Zm-5.81,20.73s35.89-13.46,39.93-.89c4.2,13.08-19.31,12.12-30.8,11.44-24.52-1.46-29-4.25-23-6.17Zm24-105s16.38-50.92,35-41.67c19.36,9.62-3,32.59-14.19,43.58-23.87,23.45-31.26,25.1-28.12,16.91Z"/><path class="cls-7" d="M164.49,203s-41.15,50.2-51,75.34c-11.31,28.87-19,61.4-20.55,88.34"/><line class="cls-7" x1="121.69" y1="261.89" x2="115.97" y2="214.02"/><line class="cls-7" x1="113.5" y1="278.29" x2="92.8" y2="238.05"/><line class="cls-7" x1="116.52" y1="272.32" x2="159.87" y2="263.49"/><line class="cls-7" x1="105.35" y1="301.12" x2="79.86" y2="272.08"/><line class="cls-7" x1="108.91" y1="291.55" x2="141.64" y2="291.27"/><line class="cls-7" x1="102.61" y1="315.31" x2="127.71" y2="316.31"/><line class="cls-7" x1="97.46" y1="330.48" x2="84.01" y2="312.56"/><line class="cls-7" x1="96.47" y1="337.14" x2="125.83" y2="335.68"/><path class="cls-2" d="M40.45,298.37C45.52,300.28,44,296,28.3,282,21,275.41,5.7,262.26,1.56,273.27c-4,10.58,27.25,20.65,27.25,20.65Zm-8,13S-.33,312,0,300.71c.34-11.76,19.05-4.27,28.13-.44C47.5,308.45,50.35,312,44.94,311.82Zm12.36,17.94s-25,5.23-26.38-3.46c-1.45-9,13.94-6,21.44-4.41,16,3.44,18.69,5.73,14.53,6.39Zm11.74,18.51s-25,5.23-26.38-3.46c-1.45-9,13.94-6,21.44-4.41,16,3.45,18.68,5.74,14.53,6.4ZM50,292.25s8.63-31.66,19.38-28.17c11.19,3.64-1.25,19.48-7.48,27.12-13.3,16.29-17.49,18-15.81,12.89Zm9.47,14.33S74.16,277.27,84,282.83c10.24,5.78-5.1,18.84-12.72,25.09-16.27,13.32-20.73,14.2-18.06,9.49Zm8.45,17.65S81,299.78,89.22,304.71c8.53,5.13-4.75,15.81-11.34,20.92C63.81,336.52,60,337.16,62.39,333.24ZM76,337.5s10.48-25.7,19.15-21.67c9,4.19-3,16.23-9,22-12.83,12.32-16.53,13.35-14.6,9.21ZM32,273.11S13,239.37,27,234c14.63-5.56,15.86,17.62,16.2,29,.75,24.22-2,29-4.82,23.26Z"/><path class="cls-8" d="M40.45,298.37C45.52,300.28,44,296,28.3,282,21,275.41,5.7,262.26,1.56,273.27c-4,10.58,27.25,20.65,27.25,20.65Zm-8,13S-.33,312,0,300.71c.34-11.76,19.05-4.27,28.13-.44C47.5,308.45,50.35,312,44.94,311.82Zm12.36,17.94s-25,5.23-26.38-3.46c-1.45-9,13.94-6,21.44-4.41,16,3.44,18.69,5.73,14.53,6.39Zm11.74,18.51s-25,5.23-26.38-3.46c-1.45-9,13.94-6,21.44-4.41,16,3.45,18.68,5.74,14.53,6.4ZM50,292.25s8.63-31.66,19.38-28.17c11.19,3.64-1.25,19.48-7.48,27.12-13.3,16.29-17.49,18-15.81,12.89Zm9.47,14.33S74.16,277.27,84,282.83c10.24,5.78-5.1,18.84-12.72,25.09-16.27,13.32-20.73,14.2-18.06,9.49Zm8.45,17.65S81,299.78,89.22,304.71c8.53,5.13-4.75,15.81-11.34,20.92C63.81,336.52,60,337.16,62.39,333.24ZM76,337.5s10.48-25.7,19.15-21.67c9,4.19-3,16.23-9,22-12.83,12.32-16.53,13.35-14.6,9.21ZM32,273.11S13,239.37,27,234c14.63-5.56,15.86,17.62,16.2,29,.75,24.22-2,29-4.82,23.26Z"/><path class="cls-7" d="M32.86,247.08s6.47,46.56,15,64.15C57.66,331.44,72.45,353,86,367"/><line class="cls-7" x1="43.17" y1="298.82" x2="14.89" y2="278.33"/><line class="cls-7" x1="47.86" y1="311.23" x2="16.28" y2="302.47"/><line class="cls-7" x1="46.18" y1="306.7" x2="62.79" y2="279.29"/><line class="cls-7" x1="56.01" y1="326.79" x2="28.03" y2="326.07"/><line class="cls-7" x1="52.67" y1="320.19" x2="68.6" y2="302.64"/><line class="cls-7" x1="62.21" y1="335.22" x2="75.08" y2="322.36"/><line class="cls-7" x1="67.74" y1="345.42" x2="51.6" y2="343.76"/><line class="cls-7" x1="70.8" y1="349.22" x2="84.46" y2="332.88"/></g><g id="Character"><rect class="cls-1" x="133.76" y="255.32" width="105.72" height="21.64"/><line class="cls-4" x1="134.85" y1="260.94" x2="153.41" y2="260.94"/><line class="cls-4" x1="159.6" y1="266.84" x2="162.13" y2="266.84"/><line class="cls-4" x1="134.57" y1="266.84" x2="155.38" y2="266.84"/><line class="cls-4" x1="135.01" y1="272.96" x2="143.57" y2="272.96"/><path class="cls-9" d="M217.78,256.07a39.31,39.31,0,0,0,0,20.4h42.6s-4.48-12.94,0-20.4Z"/><g class="cls-10"><path class="cls-11" d="M217.78,256.07a39.31,39.31,0,0,0,0,20.4h42.6s-4.48-12.94,0-20.4Z"/></g><path class="cls-4" d="M217.78,256.07a39.31,39.31,0,0,0,0,20.4h42.6s-4.48-12.94,0-20.4Z"/><path class="cls-12" d="M135,273V258.18a1.37,1.37,0,0,1,1.36-1.37h125.7a1,1,0,0,0,1-1h0a1,1,0,0,0-1-1H133a1.37,1.37,0,0,0-1.37,1.37V275a2.21,2.21,0,0,0,2.21,2.21H262.07a1,1,0,0,0,1-1h0a1,1,0,0,0-1-1H137.22A2.21,2.21,0,0,1,135,273Z"/><rect class="cls-1" x="133.76" y="299.99" width="105.72" height="21.64"/><line class="cls-4" x1="135.53" y1="304.16" x2="154.08" y2="304.16"/><line class="cls-4" x1="160.27" y1="310.06" x2="162.8" y2="310.06"/><line class="cls-4" x1="135.24" y1="310.06" x2="156.05" y2="310.06"/><line class="cls-4" x1="135.68" y1="316.18" x2="144.24" y2="316.18"/><path class="cls-9" d="M218.44,300.74a39.41,39.41,0,0,0,0,20.39h41.94s-4.48-12.93,0-20.39Z"/><g class="cls-13"><path class="cls-11" d="M218.44,300.74a39.41,39.41,0,0,0,0,20.39h41.94s-4.48-12.93,0-20.39Z"/></g><path class="cls-4" d="M218.44,300.74a39.41,39.41,0,0,0,0,20.39h41.94s-4.48-12.93,0-20.39Z"/><path class="cls-12" d="M135,317.63V302.85a1.36,1.36,0,0,1,1.36-1.37h125.7a1,1,0,0,0,1-1h0a1,1,0,0,0-1-1H133a1.37,1.37,0,0,0-1.37,1.37V319.7a2.21,2.21,0,0,0,2.21,2.21H262.07a1,1,0,0,0,1-1h0a1,1,0,0,0-1-1H137.22A2.21,2.21,0,0,1,135,317.63Z"/><path class="cls-1" d="M135.11,342.24c.74-2.48,3.46-12.75.1-19.33H256.86v19.33Z"/><line class="cls-4" x1="207.74" y1="327.19" x2="189.18" y2="327.19"/><line class="cls-4" x1="183" y1="333.09" x2="180.47" y2="333.09"/><line class="cls-4" x1="208.02" y1="333.09" x2="187.22" y2="333.09"/><line class="cls-4" x1="207.59" y1="339.21" x2="199.03" y2="339.21"/><path class="cls-12" d="M208.43,340.29V325.52a1.37,1.37,0,0,0-1.37-1.37H132.64a1,1,0,0,1-1-1h0a1,1,0,0,1,1-1h129.1a1.37,1.37,0,0,1,1.37,1.37v18.91a2.21,2.21,0,0,1-2.22,2.22H132.64a1,1,0,0,1-1-1h0a1,1,0,0,1,1-1h73.58A2.22,2.22,0,0,0,208.43,340.29Z"/><path class="cls-1" d="M135.11,364.91c.74-2.48,3.46-12.76.1-19.33H256.86v19.33Z"/><line class="cls-4" x1="207.69" y1="349.99" x2="189.13" y2="349.99"/><line class="cls-4" x1="182.94" y1="355.9" x2="180.41" y2="355.9"/><line class="cls-4" x1="207.97" y1="355.9" x2="187.16" y2="355.9"/><line class="cls-4" x1="207.53" y1="362.01" x2="198.97" y2="362.01"/><path class="cls-14" d="M208.43,363V348.18a1.37,1.37,0,0,0-1.37-1.37H132.64a1,1,0,0,1-1-1h0a1,1,0,0,1,1-1h129.1a1.37,1.37,0,0,1,1.37,1.37V365a2.21,2.21,0,0,1-2.22,2.21H132.64a1,1,0,0,1-1-1h0a1,1,0,0,1,1-1h73.58A2.21,2.21,0,0,0,208.43,363Z"/><path class="cls-1" d="M135.11,296.91c.74-2.48,3.46-12.76.1-19.33H256.86v19.33Z"/><line class="cls-4" x1="208.01" y1="281.91" x2="189.45" y2="281.91"/><line class="cls-4" x1="183.26" y1="287.81" x2="180.73" y2="287.81"/><line class="cls-4" x1="208.29" y1="287.81" x2="187.48" y2="287.81"/><line class="cls-4" x1="207.86" y1="293.93" x2="199.29" y2="293.93"/><path class="cls-14" d="M208.43,295V280.18a1.37,1.37,0,0,0-1.37-1.37H132.64a1,1,0,0,1-1-1h0a1,1,0,0,1,1-1h129.1a1.37,1.37,0,0,1,1.37,1.37V297a2.21,2.21,0,0,1-2.22,2.21H132.64a1,1,0,0,1-1-1h0a1,1,0,0,1,1-1h73.58A2.21,2.21,0,0,0,208.43,295Z"/><path class="cls-12" d="M179.78,206.91s-10.34.33-25.34-3.33-27.33-1-29.66,13.33,36,29,62.66,34.33,53.34,7.67,66.34,2,12.66-26,7.66-35.33-21.66-10.67-30.33-9.33S179.78,206.91,179.78,206.91Z"/><path class="cls-12" d="M247.11,144.24q-2.15-14.4-4.29-28.81c-1.33-8.92-1.89-18.47-4.21-27.19-3-13-7.5-20-21-22.5s-28.5,12-28.5,18.5,4.64,21.18-2.5,44.25c-2.44,7.9,7,9,18.41,5.52Z"/><path class="cls-14" d="M210.86,124.24s-16.5,2.25-24.25,4.25-10.54,4.85-13.29,10.1-6.94,24.94-10.94,33.19S151.11,182.24,149.86,191s5.75,11.75,11,12.75A94,94,0,0,0,172.61,205s8.5,20,25,21.5,28.75-10,36.25-14.25,8-14,8.25-25.25,6.89-36.54,5.14-43.54-4.36-8.15-15.72-14C226.67,127,217.86,123.74,210.86,124.24Z"/><path class="cls-1" d="M159,176.93c-3.81,4.57-8.19,7.46-9.13,14.06a12.45,12.45,0,0,0,0,4c1,1.54,4.16,5.19,10.26,3.44,7.64-2.18,6.82-12.82,2.18-19.37A4.73,4.73,0,0,0,159,176.93Z"/><path class="cls-1" d="M209.69,158c7-3.2,10.78-8.74,14-19.22a100.11,100.11,0,0,0,2.85-11.53c-4.75-1.82-10.66-3.37-15.66-3,0,0-7.13,1-14.21,2.21-.59,3.68-2,14.15-.35,22C198.34,158,202.7,161.21,209.69,158Z"/><path class="cls-4" d="M176.61,194.49s5-12.5,5-16-2.25-7-4-11.5,2.75-12,2.75-12,2.83-21.73,5.45-25.52"/><path class="cls-1" d="M152.86,170l3.75-4a39.78,39.78,0,0,0,7.75,3.25c10.13,3.38,14.75,5.5,15.25,11.5,0,0,6.75-4.25,13.5-3.5s12.75,3.5,14.75,3.75l2,.25.5,3.5-3.75,19.75-29.25-3-20-17.5Z"/><polygon class="cls-12" points="151.61 169.24 175.36 189.49 177.86 185.49 211.86 184.74 209.86 206.74 177.61 205.24 175.36 206.74 157.86 193.74 151.61 169.24"/><path class="cls-1" d="M234.36,162.49l-.5,28.5s-14.75,8.25-23,10.5a54.3,54.3,0,0,1-14,2.25c-.75,0-4-5.25-5.75-7s-3.16-1.77-6.36-3.38c-4.46-2.22-6.39-2.62-6.14-1.62s.5,2,2.75,3.25,3.75,2.25,3.75,2.25l.5,1s-5.5-.75-7.75-1.25-8-4.5-8-4.5-2.45-.15-.7,2.85,3.45,3.15,3.45,3.15a9.08,9.08,0,0,0,2.5,4.75,37.67,37.67,0,0,0,3.5,2.75s-4.75-1.25-4.25,0,3.5,1.75,7.25,3.5,12.25,2,17,2.75a119.41,119.41,0,0,0,26,.5c10-1,25-7.75,27.75-10s1-27.5.25-33.25-2.25-16.5-3.25-21.5-5-12-7.5-13.5S234.86,137.74,234.36,162.49Z"/><path class="cls-1" d="M172.61,198.49S178.56,202,183,203"/><path class="cls-1" d="M178.61,206a19.44,19.44,0,0,0,5.89,1.23"/><path class="cls-1" d="M173.37,201a30.27,30.27,0,0,0,10.39,4.7"/><path class="cls-14" d="M227.59,212.31c9.77-1.81,22.28-7.53,24.77-9.57,2.75-2.25,1-27.5.25-33.25s-2.25-16.5-3.25-21.5-5-12-7.5-13.5-7,3.25-7.5,28l-.5,28.5s-5.73,3.21-12.05,6.17C224.25,199.81,228.36,205.4,227.59,212.31Z"/><path class="cls-1" d="M202,121.28s-2.23,13-2.46,21,5.82,16.09,14.31,5.81S221,120.83,221,120.83A23.67,23.67,0,0,1,202,121.28Z"/><path class="cls-4" d="M202.65,126.86s.45,6.93-.22,10.73"/><path class="cls-1" d="M152.28,188.34a4.29,4.29,0,0,0,.38,3.43c1,1.65,6.34,4.82,6.34,3.55s-2.66-3-2.79-3.93a7.41,7.41,0,0,0-.89-2.16S153.42,186.82,152.28,188.34Z"/><path class="cls-1" d="M149.72,180.93s-.24,3.7.39,5.44,7.32,6.35,9,5.46-3.56-5.47-4.81-6.9A43.82,43.82,0,0,0,149.72,180.93Z"/><path class="cls-1" d="M149.74,176.42s-.51,3.67,0,5.45,6.85,6.85,8.63,6.09-3.17-5.71-4.31-7.23A44.57,44.57,0,0,0,149.74,176.42Z"/><path class="cls-1" d="M152.79,172.23s-3.81-2-4.44.51,2.28,5.2,4.94,7.35,3.81,1.78,3.81-.25S152.79,172.23,152.79,172.23Z"/><path class="cls-1" d="M152.44,251.58s-5,2.66-14.33,3-17-4.67-12.67-8.67a21.07,21.07,0,0,1,17-5.33c6,1,15,3.33,15,3.33Z"/><path class="cls-1" d="M153.78,243.24a12.82,12.82,0,0,0,1.41.1c-3.06-.75-8.61-2.07-12.75-2.76a21.07,21.07,0,0,0-17,5.33c-2.21,2-1.29,4.33,1.36,6.05a6.41,6.41,0,0,1,4-6.72C136.44,242.58,148.11,242.58,153.78,243.24Z"/><path class="cls-12" d="M256.78,223.91s-10,15-20,21-55.67,6.67-65,6.67H152.44v-7s30.67-4.34,47.67-14,26-20.34,39.33-24.67,25,3,24.67,21"/><path class="cls-15" d="M250.06,235.39a57,57,0,0,1-29.16,14.42"/><path class="cls-15" d="M256.61,227.24a26.18,26.18,0,0,1-2.81,4.12"/><path class="cls-15" d="M206.11,228.74a29.3,29.3,0,0,1-16,6"/><path class="cls-12" d="M146.54,209.68l-1.1-.1"/><path class="cls-1" d="M240.44,252.91a93.5,93.5,0,0,1,15.34-4c7-1,12.66,0,14.66,4.33s.67,9.67-6.33,11-19.67-1.33-21-1.33a9.82,9.82,0,0,1-3.33-1Z"/><path class="cls-1" d="M262.37,248.64c2.13.83,6.15,3.08,5.41,8.27-1,7-9.34,7-15,7a5.08,5.08,0,0,0-1.24.17c4.2.5,9.08.83,12.57.16,7-1.33,8.33-6.66,6.33-11C269.12,250.39,266.2,249,262.37,248.64Z"/><path class="cls-12" d="M142.78,202.24s-11.34-2-18.67,3.67-6.33,11.67.67,20.33,25,24,64,31,51,4.67,51,4.67l.66-9a79.32,79.32,0,0,1-46.66-15c-21.83-16-31.56-26.51-47.24-28.23"/><path class="cls-15" d="M142.19,209.82a28.43,28.43,0,0,0-3.58.42"/><path class="cls-15" d="M235.61,252.74s-23-.5-49-20.5c-18.38-14.13-29.26-20.27-38-22"/><path class="cls-1" d="M235.39,107.38c-6.14,3.23-7-3.26-6.95-7.18a.36.36,0,0,0,.12-.17c.45-1.8,0-10.79-5.16-14.38-4.56-3.17-10.6-5.9-16.24-5.91-4,0-7.5,2.53-9.63,5.74-2.53,3.83-2.32,8.27-2.52,12.7s-.63,9.3.25,13.72c1.18,5.91,6.69,18.3,13.38,18.3,6.07,0,16.85-9.08,20.54-14.44a6.21,6.21,0,0,0,2.28-1.3C232.83,113.28,235.59,111.31,235.39,107.38Z"/><path class="cls-4" d="M208.64,103.44s-2.76,8.46-2.56,9.45,3.54,0,3.54,0"/><path class="cls-4" d="M206.08,116.43s3.64,2.74,9.44-1.58"/><path class="cls-4" d="M214.93,106.4s2,4.13,8.27,1.77"/><path class="cls-4" d="M197,101.48s1.18,4.13,7.48,2.55"/><path class="cls-4" d="M208.18,98.34s-2.23-8-9.58-3.94"/><circle class="cls-4" cx="218.28" cy="106.99" r="7.87" transform="matrix(0.38, -0.92, 0.92, 0.38, 36.22, 268.07)"/><circle class="cls-4" cx="200.18" cy="103.44" r="7.87"/><line class="cls-4" x1="225.75" y1="108.56" x2="232.24" y2="107.38"/><line class="cls-4" x1="192.51" y1="101.48" x2="194.87" y2="99.71"/><path class="cls-12" d="M200.26,82.73s7-4.27,9.44-.22,13.65,30.87,25.69,24.87-.09-25.77-11.77-32.06S202.06,74.42,200.26,82.73Z"/><path class="cls-15" d="M207.16,79.74s-3.93-3.31-6.22-1.79a4.53,4.53,0,0,0-2.29,3.44"/><path class="cls-15" d="M235.82,100.33a10.5,10.5,0,0,0,2.9,1.28"/><path class="cls-15" d="M205.52,71.47s6.87-7.63,14.5,4.19c5,7.77,7.88,15.53,11.64,20.6"/><path class="cls-15" d="M216.76,97.23A9,9,0,0,1,227,98.81"/><path class="cls-4" d="M206.5,173.66s7.55,9.43,20,9.43"/></g><g id="Ground"><line class="cls-4" x1="26.69" y1="367.24" x2="371.8" y2="367.24"/></g></svg>