<svg xmlns="http://www.w3.org/2000/svg" viewBox="0 0 418.72 379.13"><defs><style>.cls-1,.cls-12,.cls-6{fill:#c6ff00;}.cls-11,.cls-2,.cls-9{fill:#fff;}.cls-2{opacity:0.7;}.cls-13,.cls-3{fill:none;}.cls-10,.cls-11,.cls-12,.cls-13,.cls-3,.cls-4,.cls-5,.cls-6,.cls-7,.cls-9{stroke:#263238;stroke-width:1.17px;}.cls-3,.cls-4,.cls-5,.cls-6,.cls-7,.cls-9{stroke-linecap:round;stroke-linejoin:round;}.cls-10,.cls-4,.cls-8{fill:#263238;}.cls-5{fill:#4c4c4c;}.cls-7{fill:#ccc;}.cls-10,.cls-11,.cls-12,.cls-13{stroke-miterlimit:10;}</style></defs><g id="Background_Simple" data-name="Background Simple"><path class="cls-1" d="M16.69,202.77s2.32,72,62.44,120,143.4,51.44,210.84,56,119.22-33.62,127-91.32-43.72-74.65-71.68-140.33S319.85,59.84,260.7,19.44,109,3.85,60.5,73.06,16.69,202.77,16.69,202.77Z"/><path class="cls-2" d="M16.69,202.77s2.32,72,62.44,120,143.4,51.44,210.84,56,119.22-33.62,127-91.32-43.72-74.65-71.68-140.33S319.85,59.84,260.7,19.44,109,3.85,60.5,73.06,16.69,202.77,16.69,202.77Z"/></g><g id="Padlock"><path class="cls-3" d="M44.82,108.72V83c0-18.24,15.16-33.08,33.79-33.08S112.4,64.72,112.4,83v25.76h13.47V83c0-25.51-21.2-46.27-47.26-46.27S31.35,57.45,31.35,83v25.76Z"/><rect class="cls-3" x="26.35" y="108.91" width="103.18" height="85.35"/><path class="cls-3" d="M88.67,144.35a11.24,11.24,0,0,0-22.47,0A11,11,0,0,0,72.1,154l-1.89,19.39H84.66L82.77,154A11,11,0,0,0,88.67,144.35Z"/></g><g id="Character"><polygon class="cls-4" points="193.85 197.03 168.16 195.34 168.16 194.92 165 195.13 161.85 194.92 161.85 195.34 136.16 197.03 117.21 352.82 136.16 352.82 164.37 228.61 165.64 228.61 193.85 352.82 212.8 352.82 193.85 197.03"/><path class="cls-5" d="M117.21,352.82,112.58,360,98.27,366.3a4.88,4.88,0,0,0-2.53,4.21V376h40.84a54.21,54.21,0,0,0,0-8.84c-.42-4.21-.42-14.32-.42-14.32Z"/><path class="cls-4" d="M95.74,371.35V376h40.84s.19-2,.19-4.63Z"/><path class="cls-5" d="M212.72,352.82l4.63,7.16,14.32,6.32a4.88,4.88,0,0,1,2.52,4.21V376H193.35a54.21,54.21,0,0,1,0-8.84c.42-4.21.42-14.32.42-14.32Z"/><path class="cls-4" d="M234.19,371.35V376H193.35s-.18-2-.19-4.63Z"/><path class="cls-6" d="M125.28,124.55s-30,42.16-30,45.25,4.77,26.94,12.35,29.19,11.79-1.68,13.19-9.54-3.37-19.09-3.37-19.09l14-12.63Z"/><path class="cls-7" d="M119.46,188.32s8.7-1.4,11-.84,3.93,5.9,3.93,5.9.84,7.86-.56,9.54-8.15,3.65-11,4.21-8.7-5.89-11-9.82S113.56,186.64,119.46,188.32Z"/><polygon class="cls-6" points="131.59 122.64 125.28 124.55 135.22 190.89 194.31 190.89 203.29 124.93 195.26 121.87 165.63 115.37 131.59 122.64"/><polygon class="cls-4" points="197.56 144.81 196.22 154.37 185.89 156.86 175.38 152.65 176.14 144.05 197.56 144.81"/><path class="cls-5" d="M184.74,152.56a1.82,1.82,0,1,1,1.82,1.81A1.82,1.82,0,0,1,184.74,152.56Z"/><polygon class="cls-4" points="159.32 127.61 164.86 134.11 157.79 179.23 165.24 191.08 174.04 178.66 166.58 134.3 172.89 128.18 166.2 119.58 159.32 127.61"/><polygon class="cls-4" points="153.96 116.33 128.53 122.64 129.3 125.69 154.15 118.81 153.96 116.33"/><polygon class="cls-4" points="174.8 115.56 200.23 121.87 199.47 124.93 174.61 118.05 174.8 115.56"/><path class="cls-6" d="M200.23,121.87s9.62,2.17,15.51,5.54,7.3,11,3.93,19.37-13.75,7.3-18.52,5.05-6.18-10.67-5.34-14.32"/><polygon class="cls-6" points="155.11 113.08 152.24 114.99 153.01 134.3 165.43 125.5 178.44 134.49 179.58 115.37 176.14 112.5 155.11 113.08"/><path class="cls-4" d="M180.23,90.11s7.06-1.72,8.39-8.78-11.45-15.65-20.23-17.18-21.75,7.64-23.85,13.93,6.11,12.6,14.88,13.94S180.23,90.11,180.23,90.11Z"/><path class="cls-7" d="M153.89,91.25s-3.82-5.91-4.77-.76,3,7.44,4.77,7.25S153.89,91.25,153.89,91.25Z"/><path class="cls-7" d="M178.7,91.25s3.82-5.91,4.77-.76-3.05,7.44-4.77,7.25S178.7,91.25,178.7,91.25Z"/><polygon class="cls-7" points="154.73 102.94 154.73 115.56 165.43 125.5 177.48 115.18 177.48 103.32 154.73 102.94"/><path class="cls-7" d="M153.13,87.44s-.58,11.83.38,15.64,7.25,11.84,12.21,13.55,11.83-8.58,13.36-12,1-17.94,1-17.94-2.1-5-6.3-6.49S156.56,76,153.13,87.44Z"/><path class="cls-8" d="M161.07,93.72c0,.9-.42,1.63-.93,1.63s-.92-.73-.92-1.63.41-1.63.92-1.63S161.07,92.82,161.07,93.72Z"/><path class="cls-8" d="M172.78,93.72c0,.9-.42,1.63-.93,1.63s-.92-.73-.92-1.63.41-1.63.92-1.63S172.78,92.82,172.78,93.72Z"/><path class="cls-7" d="M163.06,98.28a1.28,1.28,0,1,0,0,2.49,1.74,1.74,0,0,0,1.1-.37,3,3,0,0,0,2.44,1.12,3.07,3.07,0,0,0,2.39-1,1.77,1.77,0,0,0,1,.29,1.28,1.28,0,1,0,0-2.49"/><line class="cls-7" x1="164.57" y1="106.11" x2="168.56" y2="106.11"/><path class="cls-4" d="M152.69,90.31s.14,3.83,1.42,2.84,1.7-7.52.57-8.37S152.69,88.32,152.69,90.31Z"/><path class="cls-4" d="M177.33,90.31s.14,3.83,1.41,2.84,1.71-7.52.57-8.37S177.33,88.32,177.33,90.31Z"/><path class="cls-5" d="M152.69,87.19s.43.34.42.52c1.85,1,6.1,2.84,13,3.21a26.56,26.56,0,0,0,14-3.43c0-.51,0-.82,0-.82-.18-4.47-3.5-7.45-7.61-8.59a19.57,19.57,0,0,0-12.24.61,11.9,11.9,0,0,0-5.06,3.64C154.69,82.89,152,86.63,152.69,87.19Z"/><path class="cls-5" d="M153.13,87.44a45.19,45.19,0,0,0,13,1c8.21-.38,13.92-1,13.92-1a22.64,22.64,0,0,1-13.8,6.06A15.14,15.14,0,0,1,153.13,87.44Z"/><polygon class="cls-4" points="132.17 144.81 133.5 154.37 143.83 156.86 154.34 152.65 153.58 144.05 132.17 144.81"/><path class="cls-5" d="M145,152.56a1.82,1.82,0,1,0-1.82,1.81A1.82,1.82,0,0,0,145,152.56Z"/><rect class="cls-5" x="134.34" y="190.29" width="60.63" height="9.54"/><rect class="cls-5" x="130.13" y="190.85" width="18.53" height="11.79" rx="2.67"/><rect class="cls-5" x="178.41" y="190.85" width="18.53" height="11.79" rx="2.67"/><rect class="cls-9" x="159.04" y="190.85" width="13.19" height="8.42"/><path class="cls-3" d="M117.49,170.36s-8.42-.56-11.51-5.9"/><ellipse class="cls-6" cx="211.11" cy="131.06" rx="13.9" ry="14.6"/><ellipse class="cls-6" cx="211.11" cy="123.66" rx="10.88" ry="9.75"/><ellipse class="cls-7" cx="211.11" cy="116.5" rx="10.88" ry="9.75"/><path class="cls-7" d="M193.63,95.47s.19,14.39.93,18.63,3.68,9.77,7.74,9.77a25.3,25.3,0,0,0,7.93-1.48s4.79,2.59,9.4,1.85,3.87-7.19,3.87-10-.55-23.6-.55-23.6.37-2-1.47-2.4a16,16,0,0,0-2.77-.37V83.49A3.35,3.35,0,0,0,215.58,82c-2.4,0-2.59.56-2.59.56V78.51s-2-3.23-4.61-1.66a3.68,3.68,0,0,0-1.84,3l-.18,3.87s-4.43-1.66-4.8.93-1.1,18.43-1.1,18.43A41.15,41.15,0,0,0,199,95.66C198.06,93.26,193.63,93.26,193.63,95.47Z"/><line class="cls-3" x1="206.36" y1="83.67" x2="206.72" y2="100.64"/><line class="cls-3" x1="212.99" y1="82.57" x2="213.18" y2="100.82"/><line class="cls-3" x1="218.71" y1="87.91" x2="218.34" y2="100.64"/><line class="cls-3" x1="203.96" y1="100.45" x2="220.74" y2="101.19"/><path class="cls-3" d="M200.46,103a4.51,4.51,0,0,0,1.8,3.59c1.82,1.14,5.92,4.1,6.38,8.88"/></g><g id="Security_Barrier" data-name="Security Barrier"><polygon class="cls-10" points="48.08 375.54 33.83 375.54 52.83 243.02 67.09 243.02 48.08 375.54"/><polygon class="cls-11" points="76.6 375.54 90.85 375.54 71.84 243.02 57.59 243.02 76.6 375.54"/><polygon class="cls-10" points="250.39 375.54 236.14 375.54 255.15 243.02 269.4 243.02 250.39 375.54"/><polygon class="cls-11" points="278.91 375.54 293.16 375.54 274.15 243.02 259.9 243.02 278.91 375.54"/><rect class="cls-12" x="16.94" y="222.25" width="271.93" height="26.36"/><rect class="cls-12" x="23.57" y="222.25" width="271.93" height="26.36"/><polygon class="cls-8" points="28.02 248.61 51.11 248.61 63.03 222.25 39.95 222.25 28.02 248.61"/><polygon class="cls-8" points="119.38 222.25 96.3 222.25 84.37 248.61 107.45 248.61 119.38 222.25"/><polygon class="cls-8" points="288.43 222.25 265.34 222.25 253.42 248.61 276.5 248.61 288.43 222.25"/><polygon class="cls-8" points="232.08 222.25 209 222.25 197.07 248.61 220.15 248.61 232.08 222.25"/><polygon class="cls-8" points="175.73 222.25 152.65 222.25 140.72 248.61 163.8 248.61 175.73 222.25"/><line class="cls-13" x1="294.01" y1="233.94" x2="249.01" y2="233.94"/><line class="cls-13" x1="293.23" y1="238.35" x2="286.12" y2="238.35"/><line class="cls-13" x1="22.42" y1="237.25" x2="67.42" y2="237.25"/><line class="cls-13" x1="23.21" y1="232.29" x2="80.06" y2="232.29"/><rect class="cls-4" x="292.58" y="369.76" width="77.14" height="5.79"/><polygon class="cls-6" points="356.7 369.6 305.6 369.6 325.63 260.64 336.67 260.64 356.7 369.6"/><polygon class="cls-9" points="318.19 301.13 344.12 301.13 341.63 287.63 320.67 287.63 318.19 301.13"/><line class="cls-6" x1="349.02" y1="351.41" x2="350.31" y2="358.86"/><line class="cls-6" x1="334.43" y1="266.66" x2="347.41" y2="342.03"/></g><g id="Floor"><line class="cls-3" x1="411.22" y1="375.54" x2="418.13" y2="375.54"/><line class="cls-3" x1="0.58" y1="375.54" x2="401.57" y2="375.54"/></g></svg>