<svg xmlns="http://www.w3.org/2000/svg" xmlns:xlink="http://www.w3.org/1999/xlink" viewBox="0 0 668.3 741"><defs><style>.cls-1,.cls-2{fill:#c6ff00;}.cls-1,.cls-11,.cls-4,.cls-5,.cls-8,.cls-9{stroke:#263238;}.cls-1,.cls-11,.cls-4,.cls-7,.cls-8,.cls-9{stroke-linecap:round;stroke-linejoin:round;}.cls-3,.cls-6,.cls-9{fill:#fff;}.cls-3{opacity:0.75;}.cls-11,.cls-4,.cls-5,.cls-7{fill:none;}.cls-5{stroke-miterlimit:10;}.cls-7{stroke:#fff;}.cls-12,.cls-8{fill:#263238;}.cls-10{opacity:0.11;}.cls-11{stroke-width:0.5px;}.cls-13{clip-path:url(#clip-path);}.cls-14{opacity:0.26;}</style><clipPath id="clip-path"><path class="cls-1" d="M390.91,549s-13.73-1.22-25.39-2.53-16.67-1.91-16.67-1.91,4,24.82,3.87,26.43-8.09,25.32-8.09,25.32l8.8,27.82s38.32-1.13,52.41-1.71,37-5.15,37-5.15-13.22-17.77-16.11-22.36a61.88,61.88,0,0,0-4.81-6.8l20-21.81s-2.76-19.08-3.94-21.93-1.55-4-1.55-4S398.91,549.8,390.91,549Z"/></clipPath></defs><g id="Background_Simple" data-name="Background Simple"><path class="cls-2" d="M654.54,321.24q-1-5.72-1.78-11.47c-2.85-22.34-23.43-126.34-163.29-189.43-157.35-71-263.67,1.92-327.46,59.47S53.57,358.19,17.42,463.69s48.9,186.06,153.1,220.59,236,38.36,338.08,1.91C609.56,650.15,693.87,537.16,654.54,321.24Z"/><path class="cls-3" d="M654.54,321.24q-1-5.72-1.78-11.47c-2.85-22.34-23.43-126.34-163.29-189.43-157.35-71-263.67,1.92-327.46,59.47S53.57,358.19,17.42,463.69s48.9,186.06,153.1,220.59,236,38.36,338.08,1.91C609.56,650.15,693.87,537.16,654.54,321.24Z"/></g><g id="Buildings"><polyline class="cls-4" points="437.77 42.18 437.77 441.29 549.63 637.03 656.86 637.03"/><path class="cls-4" d="M437.77,431.05H362.18L73.33,674.84a34.33,34.33,0,0,0-.2,52.3h0a34.32,34.32,0,0,0,22.34,8.26H654.38"/><path class="cls-4" d="M61.14,706a34.22,34.22,0,0,0,12,26.2h0a34.32,34.32,0,0,0,22.34,8.26H654.38"/><line class="cls-4" x1="14.39" y1="525.17" x2="302.91" y2="442.13"/><polyline class="cls-4" points="208.36 15.44 208.36 454.55 0.5 502.3"/><line class="cls-5" x1="252.44" y1="444.47" x2="300.8" y2="434.2"/><polyline class="cls-4" points="209.77 178.69 252.44 177.77 252.44 444.47 208.36 445.39"/><polyline class="cls-4" points="253.4 178.69 315.33 232.18 315.33 321.25"/><polyline class="cls-4" points="308.29 209.66 308.29 180.1 339.25 180.1 339.25 287.06"/><polyline class="cls-4" points="339.25 180.1 356.14 205.44 356.14 258.92 375.84 258.92 375.84 280.03"/><line class="cls-4" x1="375.84" y1="258.92" x2="384.29" y2="271.58"/><rect class="cls-4" x="393.97" y="84.84" width="44.02" height="237.39"/><rect class="cls-4" x="455.57" y="213.75" width="31.98" height="126.05"/><line class="cls-4" x1="471.5" y1="208.17" x2="549.63" y2="157.31"/><line class="cls-4" x1="548.28" y1="121.76" x2="453.68" y2="202.46"/><line class="cls-4" x1="549.63" y1="53.84" x2="488.78" y2="129.27"/><line class="cls-4" x1="488.07" y1="308.49" x2="549.63" y2="294.64"/><line class="cls-4" x1="442.74" y1="318.82" x2="454.84" y2="315.76"/><line class="cls-4" x1="549.63" y1="637.03" x2="549.63" y2="31.26"/><line class="cls-4" x1="549.63" y1="294.64" x2="667.8" y2="294.64"/><line class="cls-4" x1="488.07" y1="301.5" x2="549.63" y2="283.13"/><line class="cls-4" x1="549.63" y1="283.13" x2="667.8" y2="283.13"/><polyline class="cls-4" points="487.46 283.3 547.52 253.65 630.46 253.65"/><line class="cls-4" x1="442.83" y1="305.32" x2="455.63" y2="299"/><line class="cls-4" x1="394.25" y1="135.68" x2="436.53" y2="135.68"/><line class="cls-4" x1="394.25" y1="182.37" x2="436.53" y2="182.37"/><line class="cls-4" x1="394.25" y1="229.06" x2="436.53" y2="229.06"/><line class="cls-4" x1="394.25" y1="275.75" x2="436.53" y2="275.75"/><path class="cls-5" d="M516.91,214H446.58a2.88,2.88,0,1,1,0-5.75h70.33a2.88,2.88,0,1,1,0,5.75Z"/><line class="cls-4" x1="455.53" y1="46.15" x2="455.53" y2="186.81"/><line class="cls-4" x1="470.87" y1="33.36" x2="470.87" y2="176.58"/><line class="cls-4" x1="488.78" y1="20.57" x2="488.78" y2="159.96"/><line class="cls-4" x1="488.78" y1="99.28" x2="533.53" y2="28.24"/><polyline class="cls-4" points="208.53 217.18 251.83 217.18 308.8 254.4"/><polyline class="cls-4" points="208.53 250.6 251.83 250.6 308.8 284.79"/><polyline class="cls-4" points="208.53 284.02 251.83 284.02 308.8 314.41"/><polyline class="cls-4" points="208.53 317.45 251.83 317.45 303.48 340.24"/><polyline class="cls-4" points="208.53 350.87 251.83 350.87 289.05 363.24"/><polyline class="cls-4" points="208.53 384.29 251.83 384.29 264.24 386.95"/><rect class="cls-4" x="232.84" y="228.57" width="9.12" height="17.47"/><rect class="cls-4" x="214.61" y="228.57" width="9.12" height="17.47"/><rect class="cls-4" x="232.84" y="260.48" width="9.12" height="17.47"/><rect class="cls-4" x="214.61" y="260.48" width="9.12" height="17.47"/><rect class="cls-4" x="232.84" y="291.62" width="9.12" height="17.47"/><rect class="cls-4" x="214.61" y="291.62" width="9.12" height="17.47"/><rect class="cls-4" x="232.84" y="325.04" width="9.12" height="17.47"/><rect class="cls-4" x="214.61" y="325.04" width="9.12" height="17.47"/><rect class="cls-4" x="232.84" y="358.47" width="9.12" height="17.47"/><rect class="cls-4" x="214.61" y="358.47" width="9.12" height="17.47"/><rect class="cls-4" x="232.84" y="392.65" width="9.12" height="17.47"/><rect class="cls-4" x="214.61" y="392.65" width="9.12" height="17.47"/><rect class="cls-4" x="232.84" y="192.11" width="9.12" height="17.47"/><polyline class="cls-4" points="267.02 220.22 260.19 214.9 260.19 197.43 267.02 202.75"/><polyline class="cls-4" points="260.19 230.09 267.02 235.41 267.02 252.88 260.19 247.56"/><polyline class="cls-4" points="267.02 269.59 267.02 285.2 260.19 281.75 260.19 264.28"/><polygon class="cls-4" points="267.02 315.37 260.19 311.92 260.19 294.45 267.02 298.6 267.02 315.37"/><polyline class="cls-4" points="267.02 347.38 260.19 344.85 260.19 327.38 267.02 330.61"/><rect class="cls-4" x="214.61" y="192.11" width="9.12" height="17.47"/><polyline class="cls-4" points="497.73 547.42 497.73 317.25 528.42 313.41 528.42 597.29"/><line class="cls-4" x1="467.04" y1="492.44" x2="467.04" y2="345.38"/><line class="cls-4" x1="473.43" y1="502.67" x2="473.43" y2="353.05"/><line class="cls-4" x1="505.4" y1="108.81" x2="505.4" y2="151.01"/><line class="cls-4" x1="520.06" y1="92.32" x2="520.06" y2="134.52"/><line class="cls-4" x1="505.4" y1="26.37" x2="505.4" y2="71.8"/><line class="cls-4" x1="520.06" y1="9.88" x2="520.06" y2="48.59"/><line class="cls-4" x1="3.04" y1="516.73" x2="311.11" y2="437.1"/><line class="cls-4" x1="25.87" y1="356.89" x2="207.45" y2="367.12"/><line class="cls-4" x1="25.87" y1="327.47" x2="207.45" y2="351.77"/><polyline class="cls-4" points="115.38 474.88 115.38 371.64 84.69 370.5 84.69 481.98"/><polyline class="cls-4" points="144.79 468.07 144.79 372.74 124.33 371.97 124.33 472.81"/><polyline class="cls-4" points="75.74 484.05 75.74 370.16 28.42 368.39 28.42 494.99"/><polyline class="cls-4" points="199.78 455.35 199.78 374.79 153.74 373.07 153.74 466"/><line class="cls-4" x1="273.02" y1="222.82" x2="273.02" y2="204.64"/><line class="cls-4" x1="273.02" y1="255.35" x2="273.02" y2="237.17"/><line class="cls-4" x1="273.02" y1="318.5" x2="273.02" y2="300.32"/><line class="cls-4" x1="273.02" y1="350.55" x2="273.02" y2="332.37"/><line class="cls-4" x1="279.72" y1="322.33" x2="279.72" y2="304.15"/><line class="cls-4" x1="286.89" y1="296.49" x2="286.89" y2="278.32"/><line class="cls-4" x1="292.63" y1="300.8" x2="292.63" y2="282.62"/><line class="cls-4" x1="292.63" y1="269.23" x2="292.63" y2="251.05"/><line class="cls-4" x1="551.44" y1="312.13" x2="616.65" y2="312.13"/><line class="cls-4" x1="551.44" y1="333.87" x2="616.65" y2="333.87"/><line class="cls-4" x1="551.44" y1="355.61" x2="616.65" y2="355.61"/><line class="cls-4" x1="551.44" y1="377.35" x2="616.65" y2="377.35"/><line class="cls-4" x1="551.44" y1="399.09" x2="616.65" y2="399.09"/><line class="cls-4" x1="551.44" y1="420.82" x2="616.65" y2="420.82"/><line class="cls-4" x1="551.44" y1="442.56" x2="616.65" y2="442.56"/><line class="cls-4" x1="551.44" y1="464.3" x2="616.65" y2="464.3"/><line class="cls-4" x1="551.44" y1="486.04" x2="616.65" y2="486.04"/><line class="cls-4" x1="551.44" y1="507.78" x2="616.65" y2="507.78"/><line class="cls-4" x1="551.44" y1="529.52" x2="616.65" y2="529.52"/><line class="cls-4" x1="551.44" y1="551.26" x2="616.65" y2="551.26"/><polyline class="cls-4" points="616.65 294.23 616.65 578.11 629.44 578.11 629.44 630.54"/><line class="cls-4" x1="616.65" y1="578.11" x2="557.83" y2="578.11"/><line class="cls-4" x1="440.18" y1="422.1" x2="460.64" y2="438.73"/><line class="cls-4" x1="436.35" y1="344.1" x2="408.22" y2="344.1"/><polyline class="cls-4" points="409.95 344.56 409.95 366.89 420.44 366.89 420.44 344.9"/><line class="cls-5" x1="183.88" y1="347.6" x2="183.88" y2="6.53"/><line class="cls-5" x1="197.52" y1="348.96" x2="197.52" y2="96.57"/><line class="cls-5" x1="160.69" y1="346.24" x2="160.69" y2="40.64"/><line class="cls-5" x1="134.76" y1="340.78" x2="134.76" y2="52.92"/><line class="cls-5" x1="111.57" y1="338.05" x2="111.57" y2="47.46"/><line class="cls-5" x1="81.56" y1="333.96" x2="81.56" y2="31.09"/><line class="cls-5" x1="50.18" y1="332.59" x2="50.18" y2="42"/><line class="cls-5" x1="32.44" y1="278.02" x2="198.89" y2="319.95"/><line class="cls-5" x1="36.54" y1="230.27" x2="196.68" y2="281.59"/><line class="cls-5" x1="72.01" y1="185.25" x2="198.15" y2="242.48"/><line class="cls-5" x1="72.01" y1="54.28" x2="197.41" y2="141.41"/></g><g id="Lamppost"><polygon class="cls-1" points="166.77 153.87 105.39 150.67 105.39 125.09 166.77 121.9 166.77 153.87"/><rect class="cls-1" x="168.05" y="70.47" width="112.53" height="31.97"/><path class="cls-6" d="M202.84,92.5a1.73,1.73,0,0,1-1.05.34,1.92,1.92,0,0,1-1.08-.34,1.71,1.71,0,0,1-.66-1l-2.41-8.09-2.41,8.09a1.76,1.76,0,0,1-.66,1,1.92,1.92,0,0,1-1.08.34,1.76,1.76,0,0,1-1.06-.34,1.59,1.59,0,0,1-.63-.92l-2.45-9.35a1.25,1.25,0,0,1,0-.31,1,1,0,0,1,.34-.78,1.21,1.21,0,0,1,.81-.3,1,1,0,0,1,.66.23,1.11,1.11,0,0,1,.4.67l2.11,8.67,2.46-8.19a2,2,0,0,1,.58-1,1.63,1.63,0,0,1,1.94,0,2.14,2.14,0,0,1,.58,1l2.45,8.19,2.12-8.67a1.15,1.15,0,0,1,.39-.67,1.09,1.09,0,0,1,.67-.23,1.19,1.19,0,0,1,.8.3,1,1,0,0,1,.35.79,1.24,1.24,0,0,1,0,.3l-2.46,9.35A1.64,1.64,0,0,1,202.84,92.5Z"/><path class="cls-6" d="M207.47,86.5A3.64,3.64,0,0,1,208.89,85a4.07,4.07,0,0,1,2.19-.58,4.3,4.3,0,0,1,1.7.31,3,3,0,0,1,1.2.89,4,4,0,0,1,.68,1.26,5.33,5.33,0,0,1,.24,1.53.84.84,0,0,1-.15.52.54.54,0,0,1-.45.2h-5.23a2.16,2.16,0,0,0,2.39,2.33,3.81,3.81,0,0,0,2.2-.83.49.49,0,0,1,.32-.12.62.62,0,0,1,.46.23.8.8,0,0,1,.19.53.71.71,0,0,1-.26.56,4.62,4.62,0,0,1-3.06,1.1,4.33,4.33,0,0,1-3.14-1.14A4.23,4.23,0,0,1,207,88.58,4.49,4.49,0,0,1,207.47,86.5Zm5.66,1.44a2.81,2.81,0,0,0-.55-1.56,2,2,0,0,0-2.89,0,2.66,2.66,0,0,0-.6,1.54Z"/><path class="cls-6" d="M216.24,91.42a.68.68,0,0,1,.19-.48.59.59,0,0,1,.47-.21.8.8,0,0,1,.43.13l.59.31a5.81,5.81,0,0,0,.71.25,3.6,3.6,0,0,0,1,.13,3.72,3.72,0,0,0,.86-.09,1.52,1.52,0,0,0,.65-.35.86.86,0,0,0,.27-.65c0-.47-.39-.8-1.15-1l-1.3-.33c-.39-.1-.71-.2-1-.28a5.17,5.17,0,0,1-.74-.32,1.89,1.89,0,0,1-.57-.43,1.84,1.84,0,0,1-.32-.59,2.52,2.52,0,0,1-.13-.82,2,2,0,0,1,.92-1.75,4.25,4.25,0,0,1,2.39-.6,6.09,6.09,0,0,1,2.72.62.7.7,0,0,1,.44.66.6.6,0,0,1-.17.45.55.55,0,0,1-.45.19.84.84,0,0,1-.32-.07l-.18-.07-.25-.08-.26-.08a1.73,1.73,0,0,0-.33-.1l-.32-.06-.38-.06h-.38a2.54,2.54,0,0,0-1.08.21.69.69,0,0,0-.45.65.65.65,0,0,0,.25.57,2.56,2.56,0,0,0,.93.35l1.27.32a4.43,4.43,0,0,1,2,.9,2,2,0,0,1,.62,1.59,2.22,2.22,0,0,1-.93,1.93,4,4,0,0,1-2.42.68,5.38,5.38,0,0,1-3.25-1A.64.64,0,0,1,216.24,91.42Z"/><path class="cls-6" d="M226.09,92.19a2.74,2.74,0,0,1-.64-2V85.94h-.8a.74.74,0,0,1-.55-.19.7.7,0,0,1-.2-.52.64.64,0,0,1,.19-.49.69.69,0,0,1,.53-.19h.87l.25-2a1.32,1.32,0,0,1,.31-.73,1,1,0,0,1,.72-.29.72.72,0,0,1,.57.24,1.12,1.12,0,0,1,.2.72v2.11h1.33a.69.69,0,0,1,.53.2.74.74,0,0,1,.19.52.66.66,0,0,1-.19.49.73.73,0,0,1-.54.18h-1.32v3.77a2.78,2.78,0,0,0,.2,1.19.72.72,0,0,0,.7.39h.09l.59,0h.06a.66.66,0,0,1,.54.24.8.8,0,0,1,.2.54,1,1,0,0,1-.07.35.49.49,0,0,1-.21.24,2.1,2.1,0,0,1-.3.15,1.55,1.55,0,0,1-.4.08l-.43,0h-.66A2.29,2.29,0,0,1,226.09,92.19Z"/><path class="cls-6" d="M243.71,90.06h-5.29l-.74,2a1.27,1.27,0,0,1-.43.61,1.17,1.17,0,0,1-1.44-.1.93.93,0,0,1-.35-.75,1.25,1.25,0,0,1,.08-.42l3.64-9.11a2.52,2.52,0,0,1,.8-1.23,2,2,0,0,1,2.17,0,2.52,2.52,0,0,1,.8,1.23l3.64,9.11a1.25,1.25,0,0,1,.08.42.93.93,0,0,1-.35.75,1.17,1.17,0,0,1-1.44.1,1.27,1.27,0,0,1-.43-.61ZM241.06,83l-2,5.46h4.09Z"/><path class="cls-6" d="M250.55,92.5a3.51,3.51,0,0,1-.72-1.3l-2.2-5.35a1.06,1.06,0,0,1-.09-.42.88.88,0,0,1,.3-.68,1,1,0,0,1,.68-.27.93.93,0,0,1,.53.17,1.12,1.12,0,0,1,.37.53l2.17,5.53,2.17-5.53a1.07,1.07,0,0,1,.38-.53.9.9,0,0,1,.53-.17,1,1,0,0,1,.67.27.88.88,0,0,1,.3.68,1,1,0,0,1-.08.42l-2.21,5.35a3.51,3.51,0,0,1-.72,1.3,1.41,1.41,0,0,1-1,.36A1.45,1.45,0,0,1,250.55,92.5Z"/><path class="cls-6" d="M257.15,86.5A3.64,3.64,0,0,1,258.57,85a4.07,4.07,0,0,1,2.19-.58,4.3,4.3,0,0,1,1.7.31,3,3,0,0,1,1.2.89,4,4,0,0,1,.68,1.26,5.33,5.33,0,0,1,.24,1.53.84.84,0,0,1-.15.52.54.54,0,0,1-.45.2h-5.23a2.16,2.16,0,0,0,2.39,2.33,3.81,3.81,0,0,0,2.2-.83.49.49,0,0,1,.32-.12.62.62,0,0,1,.46.23.8.8,0,0,1,.19.53.71.71,0,0,1-.26.56,4.62,4.62,0,0,1-3.06,1.1,4.33,4.33,0,0,1-3.14-1.14,4.23,4.23,0,0,1-1.18-3.19A4.49,4.49,0,0,1,257.15,86.5Zm5.66,1.44a2.81,2.81,0,0,0-.55-1.56,2,2,0,0,0-2.89,0,2.66,2.66,0,0,0-.6,1.54Z"/><path class="cls-6" d="M266.83,92.5a1.13,1.13,0,0,1-.34-.82,1.11,1.11,0,0,1,.34-.82,1.14,1.14,0,0,1,.86-.34,1.17,1.17,0,0,1,.84.33,1.09,1.09,0,0,1,.35.83,1.11,1.11,0,0,1-.34.82,1.25,1.25,0,0,1-1.71,0Z"/><rect class="cls-7" x="181.72" y="76.46" width="90.78" height="19.99"/><rect class="cls-1" x="54.24" y="207.3" width="112.53" height="31.97"/><polygon class="cls-6" points="141.43 215.26 84.35 215.26 84.35 210.18 61.93 222.81 84.35 235.45 84.35 230.38 141.43 230.38 141.43 215.26"/><polygon class="cls-6" points="155.07 129.83 120.87 130.97 120.87 126.65 109.78 137.39 120.87 148.13 120.87 143.82 155.07 144.95 155.07 129.83"/><polygon class="cls-8" points="179.57 651.33 157.72 651.33 160.99 6.74 176.29 6.74 179.57 651.33"/><rect class="cls-8" x="148.35" y="643.52" width="39.38" height="56.19"/><path class="cls-9" d="M145.23,26h42.14V48.59A21.07,21.07,0,0,1,166.3,69.66h0a21.07,21.07,0,0,1-21.07-21.07Z"/><path class="cls-8" d="M151.4.5H181.2a11,11,0,0,1,11,11V44.2a0,0,0,0,1,0,0H140.42a0,0,0,0,1,0,0V11.48A11,11,0,0,1,151.4.5Z"/></g><g id="Character"><ellipse class="cls-10" cx="357.06" cy="705.67" rx="61.38" ry="20.14"/><path class="cls-8" d="M374.32,360.34s29.05-.28,42,4.76,18.91,35.87,19.07,47.84-7.72,16.85-7.72,16.85l1.16,7.6s15.11,3.49,14.53,20.87-.92,36.13-14,42.35-70.94-1.4-79.86-15,8.11-36.3,4.23-58.1-7.79-43.26-6.65-58.88S374.32,360.34,374.32,360.34Z"/><path class="cls-1" d="M443.36,458.26c.58-17.38-14.53-20.87-14.53-20.87l-1.16-7.6s7.87-4.89,7.72-16.85c-.14-11-5.16-37.76-16-46l-.16.12s-10.19-5.52-15.81,6S396,404.61,396.84,417s-4.29,40.33-6.33,59c-1.26,11.54,2.76,20.57,10.11,26.25,12.58,1.15,23.82.77,28.74-1.57C442.44,494.39,442.78,475.63,443.36,458.26Z"/><path class="cls-8" d="M430.45,389.85s-14.43,4.54-26.8,5.82l-.39,5.44s11.66,0,28-5.44Z"/><path class="cls-8" d="M442,449a176.84,176.84,0,0,1-17.78,6.84c-7.77,2.33-11.65,2.33-11.27,6.21s.78,21.37,7,26,18,2.29,22-4C445.8,478.17,449,463.61,442,449Z"/><path class="cls-8" d="M427.67,429.79s-12.89,3.51-41.87,7.55l.33,9.58s30-4.3,42.7-9.53Z"/><path class="cls-9" d="M315.08,569.15s-3.92,16.45-2,27.52,20.68,58.54,22.51,66.18,3.33,15.27,3.33,15.27l11.36-1.22s.26-13-3-34.37-2.85-31.29-5.63-40-4.31-11.24-4.31-11.24l5.85-14.6Z"/><path class="cls-9" d="M360.26,582s-2.28,12.47-1.7,18.66,11.53,57.53,13.53,67.58S375.7,689,375.7,689l9.83,1.06s5.21-29.34,4.09-46.84-8.32-40.56-8.32-40.56l10.19-22.82Z"/><path class="cls-8" d="M324.61,507s-7.22,21.45-10.7,38.19a203.36,203.36,0,0,0-4,30.07,105.9,105.9,0,0,0,16.67,4.38c8.07,1.26,18.63,2.49,18.63,2.49l.3,2.06s4.26,3.7,22.42,3.21A290.75,290.75,0,0,0,401,584.56s1.61-47,.14-54.81a138.16,138.16,0,0,1-1.92-14.19s-23.11.14-45-1.45S324.61,507,324.61,507Z"/><path class="cls-7" d="M310.59,569.42s23.93,6.43,35,5.66"/><path class="cls-7" d="M346.09,576.62s29.08,5.67,55.07-1"/><path class="cls-7" d="M345.21,582.1l5.88-46.86a53.69,53.69,0,0,1,6.64-4.49"/><line class="cls-7" x1="350.95" y1="537.22" x2="341.11" y2="526.55"/><path class="cls-9" d="M351.69,380.33s-16.48-1.88-22.23-1.16-17.09,3.31-21.86,3.19-21.65.25-28.44-.25-16.83-.31-14.93,4.84,15.19,16.58,29,20.55l22.3,6.4s8.79,23.18,13,31.45,3.94,17.82,4,22.84-9.8,40.95-9.8,40.95,9.5,7.07,31.84,9.83,40.82-.9,42.88-1a13.47,13.47,0,0,0,3.22-.45s.64-30.69.62-55.51,6.67-41.64-2.19-57.54-31-21.6-37.25-23.2A27.64,27.64,0,0,0,351.69,380.33Z"/><path class="cls-9" d="M361.87,381.29a27.64,27.64,0,0,0-10.18-1s-16.48-1.88-22.23-1.16-17.09,3.31-21.86,3.19c-2.06-.05-6.38,0-11.17,0-3.9,4.71-8.92,12.64-9.62,22.74a49.45,49.45,0,0,0,6.44,2.39l22.3,6.4s8.79,23.18,13,31.45,3.94,17.82,4,22.84-9.8,40.95-9.8,40.95,9.5,7.07,31.84,9.83,40.82-.9,42.88-1a13.47,13.47,0,0,0,3.22-.45s.64-30.69.62-55.51,6.67-41.64-2.19-57.54S368.13,382.89,361.87,381.29Z"/><path class="cls-4" d="M343.9,380.14s-2.77,11.47-1.4,21,7.26,12.26,14.53,10.9,15-14.08,16.8-20.89,1.37-9.09-6.81-10.91S348,373.2,343.9,380.14Z"/><polyline class="cls-11" points="305.82 390.91 318.5 412.47 310.05 404.01"/><line class="cls-11" x1="318.5" y1="412.47" x2="313.85" y2="393.02"/><path class="cls-11" d="M353.4,444.75s15.89,13.17,33.15,11.35"/><path class="cls-11" d="M346.13,449.74A81.9,81.9,0,0,0,377.47,457"/><path class="cls-8" d="M331.07,477.31s8.43,8.77,31.87,7.3S401.33,477,401.33,477l-.09,7.47s-30.68,10.68-55.47,5.71c-14.7-3-16.8-5.75-16.8-5.75Z"/><path class="cls-9" d="M287.56,387.15s6.09-2.73,14.44-11.64,16.6-13.29,20.5-13.91A81,81,0,0,0,335,358.2c1.17-.59,6.45-1.57,8.29-5.06s-1.67-1.93-3.71-1.86-.29-2.28,1.93-4.84,7.44-8.75,6.78-12.19-5.55-1.54-13.28,2-12.78,10.62-14.56,13.21a13.9,13.9,0,0,1-3,3.41s-18.24,7.74-32.81,15.06-21.11,13-21,17.95,5.43,6.29,5.43,6.29"/><path class="cls-4" d="M344.31,376.82s.49,9.41,1.69,18.2,5.23,15.44,13,10.31,10.49-17.65,10.49-17.65A53.07,53.07,0,0,1,344.31,376.82Z"/><path class="cls-9" d="M331.22,356.62s-2.67,2.15-.91,7.8,8.52,4.8,8.91,4.16,2.12,7.69,4.68,11.56,15,10.79,20.24,11.68,9.86-2.13,10.59-5.26,2-16.59,2-25,.69-11.83-.89-15.3-4.58-6.19-14.89-7.1-16.44,2.82-21.55,6.46-4.12,8.24-4.12,8.24Z"/><path class="cls-8" d="M334.57,354.18a16,16,0,0,0,3.14,5.25,17.82,17.82,0,0,0,3.13,2.91l-1-4.93,2.23,1.51a29.58,29.58,0,0,0-.27-3.2c-.22-1.53,2.32.33,2.32.33s-.05-3.85.93-5.79a8.59,8.59,0,0,1,1.51-2.4S335.94,351.44,334.57,354.18Z"/><path class="cls-1" d="M331.22,356.62s15.67-13.09,45.16-8.94c0,0-1.62-16.85-4.1-19.54s-10.5-7.46-23.17-3.53-20.21,10.92-20.5,14.91S331.22,356.62,331.22,356.62Z"/><path class="cls-1" d="M345.07,350.26s8,2.59,14,.68,12.7-4.43,23.86-3.62,9.63,1,9.63,1-6.24-4-21.52-3.24S344.15,349,345.07,350.26Z"/><path class="cls-1" d="M374.2,347.86s3.2,1.91,12.79,3.61,8.59-.72,5.58-3.11S375.11,346.75,374.2,347.86Z"/><path class="cls-4" d="M367.46,353.06a3.77,3.77,0,0,0-.45,3.82c1,1.91,1.57,8.31,1.53,9s-.11,1.5-2.44,1.33a27.3,27.3,0,0,1-5.12-1"/><path class="cls-12" d="M358.65,356.77c-.09,1.29-.73,2.29-1.42,2.24s-1.17-1.13-1.08-2.42.73-2.29,1.42-2.24S358.75,355.48,358.65,356.77Z"/><path class="cls-12" d="M372.87,355.8c-.1,1.28-.73,2.29-1.42,2.24s-1.18-1.14-1.08-2.42.73-2.29,1.42-2.24S373,354.51,372.87,355.8Z"/><path class="cls-4" d="M351.76,352.59s3-5.17,8.11-3.43"/><path class="cls-9" d="M369.5,348s4.63-1.5,5.7,2.09"/><path class="cls-4" d="M360.58,376.25s3.83-5.53,7.92-1.11"/><path class="cls-8" d="M384.67,390.21s-10.24,1.52-12.78,20.18c-2.33,17,6.36,35,11.31,41.71s8.52,10.59,11,10.77,5,.36,7.57-13.73,8.61-25,2.75-37.86S395.29,396.87,384.67,390.21Z"/><path class="cls-8" d="M336.61,379.39s-8.06,8-12.35,23.34,4,41.3,5.2,43.88a38,38,0,0,1,2,7.39s-7.3-8.69-12.8-23.36-4.83-27.08-2.65-35.31,8.85-15.67,8.85-15.67A38.8,38.8,0,0,1,336.61,379.39Z"/><path class="cls-1" d="M388.26,684.14s-13.34.31-14.66,1-1.29,5.19-1.29,5.19-8.55,12.15-12.92,14.57-11.11,6.58-10.19,9,2.34,2.91,10.69,3.52,22-5.79,27.16-6.51,4.65-1.3,4.2-5.17-3-14.44-3-14.44A12.62,12.62,0,0,0,388.26,684.14Z"/><path class="cls-9" d="M372.31,690.28s-2.49-8.39.81-8.7,6.81-.78,6.95,2.33-1.67,7.91-1.67,7.91S374,691.87,372.31,690.28Z"/><path class="cls-9" d="M378.4,691.82s-4.34,7-8.36,9.61-5.81-.43-5.57-1.14,7.84-10,7.84-10Z"/><path class="cls-8" d="M357.52,714.83c-5.85-.42-7.61-2.19-8.12-3.05a2.48,2.48,0,0,0-.2,2.08c.91,2.44,2.34,2.91,10.69,3.52s22-5.79,27.16-6.51,4.65-1.3,4.2-5.17c0-.19-.05-.42-.08-.65-2.23.83-5.45,2-8.84,2.92C376.19,709.72,365.32,715.4,357.52,714.83Z"/><path class="cls-1" d="M351.75,672s-13.19.69-14.39,2.24-5.63,9.63-11.39,13.59-11,3.75-12.74,7.1,3.54,4.08,9.81,5.63,10.2.2,15.89-2.85,10.56-2.16,15.62-4-.59-14.45-.5-15.72,1.23-1.92.5-4.34A2.13,2.13,0,0,0,351.75,672Z"/><path class="cls-8" d="M354.55,693.73c2.06-.74,2.33-3.29,1.95-6.13-2.32,2.36-7.46,2.87-12.08,4.85-5.46,2.34-9.52,5.51-17.72,5.46a37.14,37.14,0,0,1-13.52-2.84c-1.48,3.21,3.68,4,9.86,5.49s10.2.2,15.89-2.85S349.49,695.55,354.55,693.73Z"/><path class="cls-9" d="M334.43,679.32s-1.41-5.58-2.35-7.83,7.24-4.22,8.33-1.59-2.06,10.8-2.06,10.8Z"/><path class="cls-9" d="M338.35,680.7s-3.6,6.85-7.93,8.73-6.15-.82-6.15-.82,6.81-3.33,9.44-9.34Z"/><path class="cls-2" d="M390.91,549s-13.73-1.22-25.39-2.53-16.67-1.91-16.67-1.91,4,24.82,3.87,26.43-8.09,25.32-8.09,25.32l8.8,27.82s38.32-1.13,52.41-1.71,37-5.15,37-5.15-13.22-17.77-16.11-22.36a61.88,61.88,0,0,0-4.81-6.8l20-21.81s-2.76-19.08-3.94-21.93-1.55-4-1.55-4S398.91,549.8,390.91,549Z"/><g class="cls-13"><path class="cls-6" d="M415.52,563.77h26c-.16-1.12-.38-2.53-.62-4.09H418.8c4.89-6.27,10.47-14.14,13.38-18.31l-6,1.43c-6,8.4-14.5,20-17.48,22.29-3.45,2.71-25.08,13.55-37.35,19.57,2.79-7.11,5.18-14.14,4.7-16.27a52.07,52.07,0,0,0-3.42-7.62l13.28-12.25-5.46-.52-9.76,9c-1.9-3.64-4-7.5-5.66-10.61l-5-.56c5.21,9.54,11.59,21.63,12,23.37.16,2.09-4.61,14.68-9.11,25.13a2,2,0,0,0,.77,2.53c.46.3,3.65,2.34,8.22,5.22L356.84,608l-10.79-7.2,2,6.23,4.18,2.78L349.27,611l1.23,3.9,5.85-2.29L369,621a2,2,0,0,0,1.13.34,2,2,0,0,0,1.32-.48l13-11c7.31,4.5,15.18,9.22,21.19,12.52h.2c3.48-.15,7.5-.54,11.58-1l-9.67-9.89c3.61,1.83,8.7,2.74,14.5,2.74A70.52,70.52,0,0,0,439,612l-2.62-3.58c-10.9,2.45-21.68,2.24-27.21-.85a6.59,6.59,0,0,1-3.59-4.35,2.2,2.2,0,0,1,.52-2c2.82-3.3,13.57-4.42,21.88-4.46-.5-.74-.93-1.38-1.23-1.86-.51-.81-1-1.52-1.43-2.19-7.47.22-18.46,1.32-22.33,5.86a6.27,6.27,0,0,0-1.41,5.53,8.75,8.75,0,0,0,.47,1.53l-13.78-14.09.93-11.19,2.6-1.32,30.45,8.74,3.09-3.37-28.23-8.1c6.65-3.46,12.33-6.57,14.13-8A36.16,36.16,0,0,0,415.52,563.77Zm-45.53,53-9-6,15.24-6c1.45.91,3,1.87,4.56,2.84Zm41.06,3.93c-3.7-1.91-9-4.94-14.68-8.36l4.88-1.66Zm-13-13.26-6.28,2.15c-9.07-5.5-18.55-11.47-24.43-15.23.53-1.26,1.11-2.61,1.69-4,1.88-.92,8.41-4.11,15.84-7.83l-.8,9.63a2,2,0,0,0,.58,1.59Z"/><path class="cls-14" d="M441.94,566.28,352.72,571c-.12,1.6-8.09,25.32-8.09,25.32l77.29-8.2Z"/><line class="cls-11" x1="394.43" y1="553.37" x2="373.33" y2="556.1"/><line class="cls-11" x1="394.82" y1="557.27" x2="379.97" y2="562.74"/><line class="cls-11" x1="406.93" y1="556.49" x2="423.34" y2="559.62"/><line class="cls-11" x1="408.5" y1="552.59" x2="420.61" y2="552.59"/></g><path class="cls-4" d="M390.91,549s-13.73-1.22-25.39-2.53-16.67-1.91-16.67-1.91,4,24.82,3.87,26.43-8.09,25.32-8.09,25.32l8.8,27.82s38.32-1.13,52.41-1.71,37-5.15,37-5.15-13.22-17.77-16.11-22.36a61.88,61.88,0,0,0-4.81-6.8l20-21.81s-2.76-19.08-3.94-21.93-1.55-4-1.55-4S398.91,549.8,390.91,549Z"/><path class="cls-9" d="M412.4,468c0-6.12-1.54-13-.92-21.59s.62-30.31-3.45-36.72S391.29,397,391.29,397a22,22,0,0,0-9.1,12.93c-2.23,8.9.33,20.41.33,20.41s9.16,29.89,9.33,30.58a139.6,139.6,0,0,1-.06,19.48c-.65,9,.71,15.23,2.46,22.38s3,27.18,2.74,30.79-1.95,5.07-3.68,7-4.24,5.57-3.14,8.82l3.41,0s1.24,4.63,1.39,5.77-.28,7,2,7.16,4.13-3.77,4.13-3.77,5.9-.25,7.31-4,.29-13.35.29-13.35,3.15-24.69,5-40.64S412.41,474.16,412.4,468Z"/><path class="cls-9" d="M391.29,397a22,22,0,0,0-9.1,12.93c-2.23,8.9.33,20.41.33,20.41s3.49,11.38,6.2,20.26c4.84,1.47,12.41,2.38,22.62-.49,0-1.18.05-2.38.14-3.62.62-8.56.62-30.31-3.45-36.72S391.29,397,391.29,397Z"/><path class="cls-11" d="M391.65,414.16c-6.34,6.77-7.61,20.72-7.61,20.72s-1.69-14.8,4.65-25.37"/></g></svg>